# xmcd
#
# Track frame offsets:
#	150
#	19123
#	37965
#	57834
#	74862
#	90637
#	110222
#	126843
#	142766
#	162001
#	180027
#	195108
#	216056
#	231979
#	251486
#
# Disc length: 3594 seconds
#
# Revision: 0
# Processed by: cddbd v1.5.1PL0 Copyright (c) Steve Scherf et al.
# Submitted via: audiograbber 1.83.01
#
DISCID=c50e080f
DTITLE=Chartbuster KARAOKE - CB80161
DYEAR=1900
DGENRE=KARAOKE
TTITLE0=Alan Jackson - Drive (For Daddy Gene)
TTITLE1=Travis Tritt - Modern Day Bonnie And Clyde
TTITLE2=Kenny Chesney - Young
TTITLE3=Tommy Shane Steiner - What If She's An Angel
TTITLE4=Brad Paisley - I'm Gonna Miss Her
TTITLE5=Kevin Denney - That's Just Jesse
TTITLE6=Trick Pony - Just What I Do
TTITLE7=Toby Keith - My List
TTITLE8=Shannon Lawson - Goodbye On A Bad Day
TTITLE9=Gary Allan - One, The
TTITLE10=Andy Griggs - Tonight I Wanna Be Your Man
TTITLE11=Tracy Lawrence - What A Memory
TTITLE12=Mark Chesnut - She Was
TTITLE13=Lonestar - Not A Day Goes By
TTITLE14=Pat Green - Three Days
EXTD=
EXTT0=
EXTT1=
EXTT2=
EXTT3=
EXTT4=
EXTT5=
EXTT6=
EXTT7=
EXTT8=
EXTT9=
EXTT10=
EXTT11=
EXTT12=
EXTT13=
EXTT14=
PLAYORDER=
